<?xml version="1.0" standalone="no"?>
<!DOCTYPE svg PUBLIC "-//W3C//DTD SVG 20010904//EN"
 "http://www.w3.org/TR/2001/REC-SVG-20010904/DTD/svg10.dtd">
<svg version="1.0" xmlns="http://www.w3.org/2000/svg"
 width="666.000000pt" height="375.000000pt" viewBox="0 0 666.000000 375.000000"
 preserveAspectRatio="xMidYMid meet">

<g transform="translate(0.000000,375.000000) scale(0.100000,-0.100000)"
fill="#000000" stroke="none">
<path d="M1292 2479 c-89 -17 -241 -118 -300 -198 -27 -36 -26 -37 56 -11 35
11 87 20 115 20 31 0 75 10 115 26 57 23 77 25 156 22 75 -2 101 -8 148 -31
73 -36 135 -97 173 -169 l30 -58 74 0 73 0 -6 28 c-40 163 -215 332 -386 371
-53 12 -187 12 -248 0z"/>
<path d="M2195 2411 c-22 -10 -57 -36 -77 -57 -116 -121 -81 -301 74 -380 60
-31 153 -33 215 -4 l42 19 -21 44 -22 44 -33 -13 c-68 -29 -141 -10 -183 48
-47 64 -38 129 25 188 22 21 36 25 88 25 34 0 71 -3 82 -7 16 -6 24 0 43 32
12 21 22 41 22 43 0 3 -18 12 -40 21 -56 22 -164 21 -215 -3z"/>
<path d="M3488 2405 c-91 -62 -72 -181 39 -235 92 -45 116 -83 71 -114 -31
-22 -51 -20 -109 10 -28 14 -52 24 -54 22 -15 -17 -35 -73 -31 -84 10 -25 93
-54 157 -54 67 0 127 24 151 62 36 55 27 129 -19 171 -12 10 -49 33 -84 51
-68 35 -86 54 -76 79 10 26 56 32 105 15 l43 -16 19 39 c11 21 20 40 20 43 0
13 -88 36 -138 36 -44 0 -65 -6 -94 -25z"/>
<path d="M4468 2414 c-24 -13 -65 -71 -56 -79 2 -1 18 -10 37 -20 34 -17 35
-17 54 9 32 45 117 27 117 -25 0 -27 -31 -59 -56 -59 -21 0 -24 -5 -24 -35 0
-30 3 -35 24 -35 48 0 78 -55 52 -95 -31 -47 -105 -40 -128 11 -10 22 -10 22
-51 4 -23 -11 -43 -24 -45 -30 -8 -22 61 -80 111 -95 53 -16 93 -11 149 16 76
38 98 146 42 202 l-23 24 19 38 c11 22 20 46 20 55 -1 34 -40 99 -69 114 -38
20 -137 20 -173 0z"/>
<path d="M5259 2407 c-95 -64 -124 -216 -67 -349 34 -80 117 -118 203 -93 79
23 120 75 135 173 19 115 -20 228 -93 272 -46 29 -133 27 -178 -3z m128 -72
c65 -45 60 -249 -6 -285 -51 -27 -98 11 -110 90 -23 143 40 248 116 195z"/>
<path d="M4891 2354 c-98 -122 -116 -158 -116 -235 0 -53 5 -74 21 -96 74
-100 255 -96 306 7 49 97 -2 208 -108 235 l-46 11 62 72 62 72 -64 0 -64 0
-53 -66z m103 -195 c52 -41 19 -129 -48 -129 -69 0 -103 87 -50 129 15 12 37
21 49 21 12 0 34 -9 49 -21z"/>
<path d="M2565 2236 c-17 -7 -43 -28 -58 -45 -23 -27 -27 -42 -27 -91 0 -48 4
-64 26 -90 38 -44 75 -60 142 -60 50 0 66 5 100 30 52 37 62 57 62 118 0 90
-68 152 -165 152 -27 -1 -64 -7 -80 -14z m123 -82 c27 -19 30 -78 5 -106 -20
-22 -70 -23 -95 -1 -27 24 -24 87 4 107 12 9 32 16 43 16 11 0 31 -7 43 -16z"/>
<path d="M2993 2235 c-13 -9 -23 -11 -23 -6 0 6 -22 11 -50 11 l-50 0 0 -146
0 -145 48 3 47 3 5 105 5 105 28 3 c49 6 57 -10 57 -120 l0 -99 48 3 47 3 3
94 c3 101 11 121 47 121 36 0 44 -20 47 -121 l3 -94 48 -3 49 -3 -4 126 c-3
125 -3 127 -31 151 -39 33 -105 33 -143 0 -28 -23 -28 -23 -44 -3 -22 27 -106
35 -137 12z"/>
<path d="M3854 2231 c-99 -61 -109 -171 -21 -246 36 -31 47 -35 95 -35 59 0
142 38 142 64 0 20 -58 42 -73 27 -6 -6 -30 -11 -53 -11 -33 0 -47 5 -58 22
-9 12 -16 26 -16 30 0 5 47 8 105 8 l105 0 0 28 c0 41 -32 93 -71 114 -44 24
-115 23 -155 -1z m118 -58 c29 -26 21 -33 -37 -33 -57 0 -66 8 -39 34 20 21
53 20 76 -1z"/>
<path d="M4194 2231 c-52 -32 -74 -72 -74 -134 0 -45 5 -61 26 -87 15 -17 39
-37 55 -45 35 -19 119 -19 144 -1 16 12 17 17 6 42 -10 27 -15 29 -50 26 -30
-3 -43 1 -60 19 -48 51 -11 124 59 117 33 -3 41 0 49 20 6 13 11 29 11 36 0
31 -119 36 -166 7z"/>
<path d="M1093 2219 c-54 -10 -127 -60 -158 -108 -102 -153 -11 -361 170 -391
33 -5 173 -10 312 -10 141 0 254 -4 257 -9 7 -10 -39 -41 -116 -78 -74 -36
-205 -35 -285 2 -39 18 -72 25 -115 25 -33 0 -85 9 -119 20 -34 12 -63 19 -66
17 -2 -3 27 -36 65 -75 110 -111 229 -162 383 -162 147 0 268 51 373 157 62
62 144 209 133 237 -6 14 -52 16 -402 16 -425 0 -433 1 -469 52 -22 32 -20 90
4 121 12 15 38 31 58 37 21 6 155 10 315 10 152 0 277 3 277 8 -2 28 -80 119
-116 132 -30 12 -441 11 -501 -1z"/>
<path d="M2134 1750 c-28 -11 -54 -48 -54 -77 0 -25 37 -71 60 -74 47 -5 71 2
68 19 -2 12 -11 16 -31 14 -35 -4 -57 13 -57 44 0 27 39 57 63 49 13 -6 34 11
25 20 -9 10 -56 13 -74 5z"/>
<path d="M3110 1740 c-11 -11 -20 -24 -20 -29 0 -12 26 -38 51 -51 32 -18 23
-33 -16 -27 -19 3 -35 2 -35 -4 0 -5 0 -12 0 -16 1 -14 51 -22 76 -13 37 14
33 65 -6 85 -38 20 -42 50 -5 41 28 -7 37 17 9 28 -25 9 -33 7 -54 -14z"/>
<path d="M4110 1680 c0 -64 3 -80 15 -80 12 0 15 16 15 80 0 64 -3 80 -15 80
-12 0 -15 -16 -15 -80z"/>
<path d="M3925 1741 c-7 -12 12 -24 25 -16 11 7 4 25 -10 25 -5 0 -11 -4 -15
-9z"/>
<path d="M4226 1713 c-11 -68 -7 -113 9 -113 11 0 15 11 15 40 0 51 13 51 29
-1 15 -50 30 -46 50 12 l16 44 3 -47 c2 -34 7 -48 18 -48 16 0 18 29 8 104 -9
60 -35 63 -54 6 -7 -22 -16 -40 -20 -40 -4 0 -12 18 -19 40 -16 54 -46 56 -55
3z"/>
<path d="M3640 1712 c0 -11 -6 -23 -12 -26 -10 -5 -10 -7 0 -12 6 -3 12 -21
12 -40 0 -30 3 -34 27 -34 25 0 26 1 11 16 -13 13 -14 23 -7 42 7 17 6 29 -3
40 -7 8 -12 18 -10 21 2 3 -1 7 -7 9 -6 2 -11 -5 -11 -16z"/>
<path d="M5447 1704 c-2 -14 0 -43 5 -65 9 -32 15 -39 36 -39 24 0 24 1 9 18
-19 21 -22 49 -7 54 14 4 -11 58 -26 58 -7 0 -14 -12 -17 -26z"/>
<path d="M4418 1689 c-21 -12 -24 -62 -5 -77 6 -5 29 -10 50 -10 l37 0 0 44
c0 37 -3 44 -19 44 -11 0 -25 2 -33 5 -7 2 -21 0 -30 -6z m50 -41 c-2 -13 -10
-23 -18 -23 -8 0 -16 10 -18 23 -3 17 2 22 18 22 16 0 21 -5 18 -22z"/>
<path d="M4558 1693 c-26 -4 -28 -8 -28 -49 0 -32 4 -44 15 -44 10 0 15 10 15
34 0 20 6 36 14 39 20 8 26 -2 26 -40 0 -23 5 -33 15 -33 24 0 20 76 -4 90
-11 5 -21 9 -23 9 -2 -1 -15 -4 -30 -6z"/>
<path d="M4667 1682 c-20 -22 -22 -53 -5 -70 7 -7 31 -12 55 -12 l43 0 0 45
c0 41 -2 45 -24 45 -13 0 -31 2 -38 5 -8 3 -22 -3 -31 -13z m59 -23 c3 -6 0
-17 -7 -25 -18 -17 -44 -2 -36 20 7 18 33 21 43 5z"/>
<path d="M4798 1689 c-21 -12 -24 -59 -6 -77 7 -7 25 -12 41 -12 25 0 27 -2
17 -15 -8 -10 -22 -12 -43 -8 -29 6 -31 5 -18 -10 16 -20 62 -22 79 -5 16 16
16 128 0 128 -7 0 -22 2 -33 5 -11 3 -28 0 -37 -6z m58 -30 c8 -14 -21 -43
-35 -35 -6 4 -11 16 -11 27 0 21 34 27 46 8z"/>
<path d="M4932 1684 c-25 -17 -29 -56 -8 -73 18 -15 68 -10 74 7 3 9 -4 12
-23 10 -16 -2 -30 2 -32 10 -3 8 7 12 31 12 20 0 36 4 36 9 0 10 -39 41 -50
41 -3 0 -16 -7 -28 -16z m43 -14 c3 -5 -3 -10 -15 -10 -12 0 -18 5 -15 10 3 6
10 10 15 10 5 0 12 -4 15 -10z"/>
<path d="M5053 1693 c-20 -4 -23 -11 -23 -49 0 -32 4 -44 15 -44 10 0 15 11
15 35 0 24 5 35 15 35 10 0 15 -11 15 -35 0 -24 5 -35 15 -35 10 0 15 11 15
35 0 23 5 35 14 35 15 0 26 -21 26 -51 0 -10 7 -19 15 -19 25 0 20 77 -6 90
-15 9 -24 8 -35 -1 -11 -9 -18 -9 -26 -1 -12 12 -16 13 -55 5z"/>
<path d="M5220 1680 c-24 -24 -24 -29 -4 -58 12 -17 24 -22 47 -20 17 2 32 9
35 16 3 9 -4 12 -23 10 -16 -2 -30 2 -32 10 -3 8 6 12 26 12 36 0 42 23 12 40
-28 14 -38 13 -61 -10z m55 -10 c3 -5 -3 -10 -14 -10 -12 0 -21 5 -21 10 0 6
6 10 14 10 8 0 18 -4 21 -10z"/>
<path d="M5348 1693 c-26 -4 -28 -8 -28 -49 0 -32 4 -44 15 -44 10 0 15 10 15
29 0 29 21 57 33 44 4 -3 7 -21 7 -40 0 -23 5 -33 15 -33 11 0 15 11 15 38 0
38 -15 63 -34 61 -6 -1 -23 -4 -38 -6z"/>
<path d="M2243 1682 c-26 -17 -19 -70 12 -82 39 -15 75 3 75 38 0 15 -5 33
-12 40 -13 13 -57 16 -75 4z m54 -28 c9 -23 -13 -40 -32 -24 -12 10 -13 16 -4
26 15 18 28 18 36 -2z"/>
<path d="M2360 1645 c0 -33 4 -45 15 -45 11 0 15 11 15 36 0 45 24 42 28 -4 4
-42 32 -44 32 -3 0 17 5 33 11 37 15 9 29 -16 24 -43 -3 -17 1 -23 16 -23 15
0 19 7 19 34 0 18 -6 38 -12 43 -7 6 -43 11 -80 12 l-68 1 0 -45z"/>
<path d="M2540 1619 c0 -55 3 -69 15 -69 9 0 15 10 15 26 0 20 4 25 16 20 38
-14 75 35 54 73 -8 16 -20 20 -55 19 l-45 -1 0 -68z m74 42 c9 -14 -4 -41 -19
-41 -18 0 -28 17 -21 35 6 17 32 20 40 6z"/>
<path d="M2670 1671 c-14 -27 -13 -38 8 -59 13 -13 29 -17 55 -14 36 4 37 5
37 48 l0 44 -45 0 c-34 0 -47 -5 -55 -19z m68 -24 c4 -21 -27 -35 -38 -17 -12
19 0 42 19 38 9 -2 17 -11 19 -21z"/>
<path d="M2800 1644 c0 -51 21 -58 27 -9 5 36 8 39 28 32 9 -4 15 -19 15 -37
0 -20 5 -30 15 -30 10 0 15 10 15 29 0 52 -8 61 -56 61 l-44 0 0 -46z"/>
<path d="M2930 1650 c19 -37 19 -42 5 -70 -14 -28 -14 -30 3 -30 12 0 28 21
50 65 37 75 37 75 18 75 -8 0 -18 -9 -21 -20 -3 -11 -9 -20 -13 -20 -4 0 -13
9 -20 20 -7 11 -19 20 -27 20 -13 0 -12 -7 5 -40z"/>
<path d="M3222 1678 c-34 -34 6 -92 54 -79 29 7 27 27 -3 23 -12 -1 -24 2 -28
8 -4 6 8 10 29 10 23 0 36 5 36 13 0 21 -22 37 -50 37 -14 0 -31 -5 -38 -12z
m53 -8 c3 -5 -3 -10 -15 -10 -12 0 -18 5 -15 10 3 6 10 10 15 10 5 0 12 -4 15
-10z"/>
<path d="M3343 1683 c-7 -2 -13 -20 -13 -39 0 -27 5 -37 23 -43 24 -9 47 -4
47 10 0 5 -6 9 -13 9 -19 0 -36 20 -30 36 3 8 14 14 24 14 10 0 19 5 19 10 0
10 -35 12 -57 3z"/>
<path d="M3420 1644 c0 -54 27 -63 32 -11 2 24 8 33 26 35 38 6 24 21 -18 20
l-40 0 0 -44z"/>
<path d="M3522 1678 c-16 -16 -15 -53 2 -67 17 -14 83 -11 76 4 -3 6 -15 9
-27 7 -12 -1 -24 2 -28 8 -4 6 8 10 29 10 23 0 36 5 36 13 0 21 -22 37 -50 37
-14 0 -31 -5 -38 -12z m53 -8 c3 -6 -4 -10 -17 -10 -18 0 -20 2 -8 10 19 12
18 12 25 0z"/>
<path d="M3712 1678 c-7 -7 -12 -25 -12 -40 0 -34 24 -46 76 -40 33 4 34 5 34
48 l0 44 -43 0 c-24 0 -48 -5 -55 -12z m61 -20 c6 -19 -3 -38 -18 -38 -18 0
-28 17 -21 35 7 18 33 20 39 3z"/>
<path d="M3830 1644 c0 -54 27 -63 32 -11 2 24 8 33 26 35 38 6 24 21 -18 20
l-40 0 0 -44z"/>
<path d="M3929 1675 c-5 -52 -3 -69 9 -72 8 -3 12 9 12 41 0 25 -4 46 -10 46
-5 0 -11 -7 -11 -15z"/>
<path d="M3983 1668 c-6 -14 -7 -32 -2 -45 7 -19 16 -23 54 -23 l45 0 0 45 0
45 -43 0 c-36 0 -46 -4 -54 -22z m64 -14 c8 -21 -13 -42 -28 -27 -13 13 -5 43
11 43 6 0 13 -7 17 -16z"/>
</g>
</svg>
